<?xml version="1.0" encoding="UTF-8"?>
<svg width="128" height="128" viewBox="0 0 128 128" fill="none" xmlns="http://www.w3.org/2000/svg">
  <rect x="8" y="22" width="112" height="84" rx="12" fill="#1E293B" stroke="#00B4D8" stroke-width="3"/>
  <path d="M64 32c-17.673 0-32 14.327-32 32s14.327 32 32 32 32-14.327 32-32-14.327-32-32-32zm0 8c13.255 0 24 10.745 24 24S77.255 88 64 88 40 77.255 40 64 50.745 40 64 40z" fill="#00B4D8" opacity="0.4"/>
  <path d="M64 46c2 0 3.5 1.5 3.5 3.5V60h10.5c2 0 3.5 1.5 3.5 3.5s-1.5 3.5-3.5 3.5H67.5v10.5c0 2-1.5 3.5-3.5 3.5s-3.5-1.5-3.5-3.5V67H50c-2 0-3.5-1.5-3.5-3.5s1.5-3.5 3.5-3.5h10.5V49.5c0-2 1.5-3.5 3.5-3.5z" fill="#00B4D8"/>
  <text x="64" y="112" text-anchor="middle" font-size="16" font-family="Inter, Arial" fill="#E5E7EB">LSMC</text>
</svg>